<svg t="1747963942173" class="icon" viewBox="0 0 1024 1024" version="1.1" xmlns="http://www.w3.org/2000/svg" p-id="915" width="200" height="200"><path d="M835.7376 288.6656h-102.4a134.3488 134.3488 0 0 0 16.0256-63.8464v-1.8432a135.6288 135.6288 0 0 0-135.4752-135.5264h-1.8944A135.0656 135.0656 0 0 0 512 131.2768a135.0656 135.0656 0 0 0-99.6352-43.8272h-1.8944a135.68 135.68 0 0 0-135.424 135.5264v1.8432a134.912 134.912 0 0 0 16.0256 63.8464H181.3504a96.6656 96.6656 0 0 0-96.6144 96.6144v63.1808a96.7168 96.7168 0 0 0 61.44 89.856v235.8784A145.8176 145.8176 0 0 0 291.84 919.8592h436.8896a145.8176 145.8176 0 0 0 145.664-145.664v-237.2096a96.7168 96.7168 0 0 0 57.9584-88.5248V385.28a96.7168 96.7168 0 0 0-96.6144-96.6144z m24.9344 96.6144v63.1808a24.9856 24.9856 0 0 1-24.9344 24.9344H547.84V360.3456h287.7952a24.9856 24.9856 0 0 1 25.0368 24.9344z m-248.9344-226.1504h1.8944a63.8976 63.8976 0 0 1 63.7952 63.8464v1.8432a63.8976 63.8976 0 0 1-63.7952 63.8464H547.84V222.976a63.8976 63.8976 0 0 1 63.8976-63.8464zM346.7264 224.8192v-1.8432a63.9488 63.9488 0 0 1 63.8464-63.8464h1.8944A63.8976 63.8976 0 0 1 476.16 222.976v65.6896H410.5728a63.9488 63.9488 0 0 1-63.8464-63.8464zM156.416 385.28a24.9344 24.9344 0 0 1 24.9344-24.9344H476.16v113.0496H181.3504a24.9856 24.9856 0 0 1-24.9344-24.9344z m61.44 389.12v-229.3248H476.16v303.104H291.84a74.0352 74.0352 0 0 1-74.0864-73.984z m584.8576 0a74.0352 74.0352 0 0 1-73.984 73.984H547.84v-303.104h254.6688z" fill="#545863" p-id="916"></path></svg>